<svg xmlns="http://www.w3.org/2000/svg" width="900" height="600" viewBox="0 0 900 600"><rect x="0" y="0" width="900" height="600" fill="#192b42" /><text x="60" y="84" font-size="30" fill="#eee3c5" font-family="monospace" letter-spacing="5">MOONLIGHT</text><circle cx="760" cy="104" r="45" fill="#e4daba"/><path d="M-70 575L0 250L70 575Z" fill="#253a4e"/><path d="M40 575L110 278L180 575Z" fill="#253a4e"/><path d="M150 575L220 306L290 575Z" fill="#253a4e"/><path d="M260 575L330 250L400 575Z" fill="#253a4e"/><path d="M370 575L440 278L510 575Z" fill="#253a4e"/><path d="M480 575L550 306L620 575Z" fill="#253a4e"/><path d="M590 575L660 250L730 575Z" fill="#253a4e"/><path d="M700 575L770 278L840 575Z" fill="#253a4e"/><path d="M810 575L880 306L950 575Z" fill="#253a4e"/><path d="M920 575L990 250L1060 575Z" fill="#253a4e"/><rect x="0" y="548" width="900" height="52" fill="#436c58" /><rect x="0" y="548" width="900" height="10" fill="#91b27f" /><rect x="235" y="441" width="155" height="15" fill="#91b27f" /><rect x="235" y="456" width="155" height="16" fill="#436c58" /><circle cx="312.5" cy="401" r="7" fill="#e6c572"/><rect x="500" y="332" width="125" height="15" fill="#91b27f" /><rect x="500" y="347" width="125" height="16" fill="#436c58" /><circle cx="562.5" cy="292" r="7" fill="#e6c572"/><rect x="685" y="440" width="135" height="15" fill="#91b27f" /><rect x="685" y="455" width="135" height="16" fill="#436c58" /><circle cx="752.5" cy="400" r="7" fill="#e6c572"/><rect x="106" y="492" width="34" height="45" fill="#f2b552" rx="5"/><rect x="130" y="503" width="6" height="6" fill="#192b42" /></svg>
