<svg xmlns="http://www.w3.org/2000/svg" width="900" height="600" viewBox="0 0 900 600"><rect x="0" y="0" width="900" height="600" fill="#e5def6" /><text x="62" y="82" font-size="22" fill="#29243c" font-family="Arial, sans-serif" letter-spacing="4">MEET POCKET.</text><text x="60" y="315" font-size="80" fill="#29243c" font-family="Arial, sans-serif" font-weight="700" letter-spacing="-4">Small app.</text><text x="60" y="390" font-size="80" fill="#29243c" font-family="Arial, sans-serif" font-weight="700" letter-spacing="-4">Big</text><text x="60" y="465" font-size="80" fill="#29243c" font-family="Arial, sans-serif" font-weight="700" letter-spacing="-4">possibilities.</text><g transform="translate(570 77) rotate(10 110 208)"><rect x="0" y="0" width="220" height="416" fill="#353043" rx="46"/><rect x="11" y="12" width="198" height="392" fill="#fcfaff" rx="35"/><rect x="78" y="24" width="62" height="8" fill="#353043" rx="4"/><text x="30" y="94" font-size="17" fill="#81768b" font-family="Arial, sans-serif" >Your balance</text><text x="29" y="143" font-size="30" fill="#29243c" font-family="Arial, sans-serif" >$2,840.00</text><rect x="30" y="275" width="18" height="45" fill="#a991da" rx="4"/><rect x="57" y="248" width="18" height="72" fill="#a991da" rx="4"/><rect x="84" y="261" width="18" height="59" fill="#a991da" rx="4"/><rect x="111" y="215" width="18" height="105" fill="#a991da" rx="4"/><rect x="138" y="230" width="18" height="90" fill="#a991da" rx="4"/><rect x="165" y="184" width="18" height="136" fill="#a991da" rx="4"/><rect x="30" y="344" width="160" height="8" fill="#ebe5f5" rx="4"/><rect x="30" y="366" width="115" height="8" fill="#ebe5f5" rx="4"/></g></svg>
